<svg xmlns="http://www.w3.org/2000/svg" xmlns:xlink="http://www.w3.org/1999/xlink" width="500" zoomAndPan="magnify" viewBox="0 0 375 374.999991" height="500" preserveAspectRatio="xMidYMid meet" version="1.0"><defs><clipPath id="3c3073d0be"><path d="M 122 126 L 296.199219 126 L 296.199219 269.398438 L 122 269.398438 Z M 122 126 " clip-rule="nonzero"/></clipPath><clipPath id="9195a478e2"><path d="M 78.832031 105.898438 L 235 105.898438 L 235 265 L 78.832031 265 Z M 78.832031 105.898438 " clip-rule="nonzero"/></clipPath><clipPath id="537946f920"><path d="M 78.832031 126 L 235 126 L 235 265 L 78.832031 265 Z M 78.832031 126 " clip-rule="nonzero"/></clipPath></defs><g clip-path="url(#3c3073d0be)"><path fill="#134611" d="M 252.042969 126.289062 L 263.621094 126.289062 C 281.703125 126.289062 296.289062 141.035156 296.289062 159.117188 L 296.289062 236.355469 C 296.289062 254.277344 281.699219 269.027344 263.621094 269.027344 L 122.632812 269.027344 C 143.566406 209.871094 206.84375 198.609375 206.84375 198.609375 C 170.84375 215.738281 145.628906 260.617188 145.628906 260.617188 C 258.390625 247.296875 256.167969 157.53125 252.042969 126.289062 Z M 252.042969 126.289062 " fill-opacity="1" fill-rule="evenodd"/></g><path fill="#cde7b0" d="M 252.042969 126.289062 L 263.621094 126.289062 C 271.074219 126.289062 277.894531 128.824219 283.285156 132.949219 C 272.027344 207.648438 229.839844 263.628906 145.628906 260.617188 C 258.390625 247.296875 256.167969 157.53125 252.042969 126.289062 Z M 252.042969 126.289062 " fill-opacity="1" fill-rule="evenodd"/><g clip-path="url(#9195a478e2)"><path fill="#cde7b0" d="M 111.371094 126.289062 L 156.410156 126.289062 L 160.21875 110.269531 C 160.855469 107.890625 161.964844 105.988281 164.183594 105.988281 L 226.828125 105.988281 C 229.046875 105.988281 230.320312 108.050781 230.953125 110.269531 L 234.761719 126.289062 C 215.410156 183.542969 91.546875 169.265625 94.875 264.582031 C 85.203125 258.871094 78.699219 248.25 78.699219 236.351562 L 78.699219 159.113281 C 78.699219 141.035156 93.449219 126.289062 111.371094 126.289062 Z M 111.371094 126.289062 " fill-opacity="1" fill-rule="evenodd"/></g><g clip-path="url(#537946f920)"><path fill="#134611" d="M 234.757812 126.289062 C 215.410156 183.542969 91.546875 169.265625 94.875 264.582031 C 85.203125 258.871094 78.699219 248.25 78.699219 236.351562 L 78.699219 207.648438 C 111.050781 152.296875 193.207031 167.046875 234.757812 126.289062 Z M 234.757812 126.289062 " fill-opacity="1" fill-rule="evenodd"/></g><path fill="#cde7b0" d="M 108.675781 112.171875 L 137.0625 112.171875 C 138.964844 112.171875 140.554688 113.753906 140.554688 115.660156 L 140.554688 117.40625 C 140.554688 119.308594 138.96875 120.894531 137.0625 120.894531 L 108.675781 120.894531 C 106.613281 120.894531 105.183594 119.3125 105.183594 117.40625 L 105.183594 115.660156 C 105.183594 113.757812 106.613281 112.171875 108.675781 112.171875 Z M 108.675781 112.171875 " fill-opacity="1" fill-rule="evenodd"/></svg>