<svg xmlns="http://www.w3.org/2000/svg" xmlns:xlink="http://www.w3.org/1999/xlink" width="500" zoomAndPan="magnify" viewBox="0 0 375 374.999991" height="500" preserveAspectRatio="xMidYMid meet" version="1.0"><defs><clipPath id="913f9e6dc9"><path d="M 89.828125 113.203125 L 261.496094 113.203125 L 261.496094 284.828125 L 89.828125 284.828125 Z M 89.828125 113.203125 " clip-rule="nonzero"/></clipPath><clipPath id="24538f29db"><path d="M 160.351562 89.828125 L 284.828125 89.828125 L 284.828125 214 L 160.351562 214 Z M 160.351562 89.828125 " clip-rule="nonzero"/></clipPath></defs><g clip-path="url(#913f9e6dc9)"><path fill="#000000" d="M 224.492188 248.027344 C 197.53125 274.988281 153.675781 275.003906 126.691406 248.082031 C 99.9375 221.386719 99.636719 177.828125 126.035156 150.78125 C 147.578125 128.707031 180.277344 124.167969 206.414062 137.160156 C 207.460938 137.679688 208.722656 137.480469 209.550781 136.652344 L 217.792969 128.410156 C 219.066406 127.136719 218.777344 124.992188 217.203125 124.117188 C 204.613281 117.101562 190.375 113.363281 175.5625 113.363281 C 152.664062 113.363281 131.132812 122.28125 114.941406 138.476562 C 98.746094 154.667969 89.828125 176.199219 89.828125 199.097656 C 89.828125 221.890625 98.664062 243.328125 114.714844 259.496094 C 130.4375 275.332031 151.78125 284.449219 174.09375 284.820312 C 197.992188 285.21875 220.5 275.914062 237.140625 258.757812 C 252.652344 242.761719 261.328125 221.265625 261.300781 198.980469 C 261.28125 184.210938 257.542969 170.015625 250.542969 157.453125 C 249.667969 155.882812 247.523438 155.597656 246.253906 156.871094 L 238.011719 165.113281 C 237.183594 165.941406 236.984375 167.203125 237.507812 168.253906 C 250.371094 194.144531 246.039062 226.480469 224.492188 248.027344 " fill-opacity="1" fill-rule="nonzero"/></g><path fill="#000000" d="M 139.113281 162.648438 C 119.191406 182.5625 119.015625 214.859375 138.574219 235.003906 C 158.421875 255.445312 191.371094 255.84375 211.695312 235.871094 C 225.890625 221.914062 230.269531 201.738281 224.828125 183.941406 C 224.230469 181.980469 221.753906 181.367188 220.304688 182.816406 L 211.011719 192.109375 C 210.410156 192.710938 210.128906 193.5625 210.242188 194.40625 C 211.628906 204.746094 208.414062 215.59375 200.585938 223.585938 C 187.089844 237.375 164.75 237.585938 151 224.046875 C 137.15625 210.414062 137.09375 188.058594 150.808594 174.34375 C 158.828125 166.324219 169.804688 163.015625 180.261719 164.417969 C 181.105469 164.53125 181.949219 164.253906 182.550781 163.652344 L 191.84375 154.359375 C 193.292969 152.910156 192.6875 150.433594 190.730469 149.835938 C 173.070312 144.429688 153.058594 148.703125 139.113281 162.648438 " fill-opacity="1" fill-rule="nonzero"/><g clip-path="url(#24538f29db)"><path fill="#000000" d="M 267.414062 111.3125 C 265.199219 111.242188 263.421875 109.460938 263.351562 107.25 L 262.855469 91.871094 C 262.796875 90.03125 260.566406 89.144531 259.261719 90.449219 L 239.210938 110.5 C 236.039062 113.671875 234.320312 118.015625 234.464844 122.503906 C 234.5625 125.488281 233.417969 128.378906 231.308594 130.492188 L 180.410156 181.386719 C 178.734375 183.066406 176.511719 184.058594 174.148438 184.285156 C 170.824219 184.597656 167.585938 186.027344 165.039062 188.574219 C 164.890625 188.71875 164.75 188.867188 164.605469 189.019531 C 159.386719 194.683594 159.394531 203.542969 164.625 209.195312 C 170.394531 215.433594 180.136719 215.578125 186.089844 209.625 C 188.632812 207.082031 190.0625 203.847656 190.378906 200.527344 C 190.605469 198.164062 191.59375 195.933594 193.277344 194.253906 L 244.171875 143.355469 C 246.285156 141.246094 249.175781 140.101562 252.160156 140.195312 C 256.644531 140.339844 260.992188 138.625 264.164062 135.449219 L 284.210938 115.402344 C 285.515625 114.097656 284.632812 111.867188 282.792969 111.808594 L 267.414062 111.3125 " fill-opacity="1" fill-rule="nonzero"/></g></svg>