<svg xmlns="http://www.w3.org/2000/svg" xmlns:xlink="http://www.w3.org/1999/xlink" width="500" zoomAndPan="magnify" viewBox="0 0 375 374.999991" height="500" preserveAspectRatio="xMidYMid meet" version="1.0"><defs><clipPath id="17e1a7c3af"><path d="M 90.046875 73.460938 L 284 73.460938 L 284 301.460938 L 90.046875 301.460938 Z M 90.046875 73.460938 " clip-rule="nonzero"/></clipPath></defs><g clip-path="url(#17e1a7c3af)"><path fill="#000000" d="M 282.640625 262.289062 C 276.519531 251.542969 270.398438 240.800781 264.277344 230.0625 C 259.492188 221.660156 254.710938 213.242188 249.863281 204.722656 C 250.757812 204.261719 251.5625 203.671875 252.269531 202.953125 C 252.980469 202.238281 253.558594 201.429688 254.011719 200.527344 C 254.460938 199.625 254.765625 198.679688 254.914062 197.683594 C 255.066406 196.6875 255.058594 195.691406 254.894531 194.695312 C 254.195312 188.496094 253.449219 182.308594 252.65625 176.128906 C 252.570312 175.71875 252.589844 175.3125 252.714844 174.910156 C 252.839844 174.507812 253.058594 174.160156 253.363281 173.871094 C 257.667969 169.425781 261.921875 164.933594 266.199219 160.457031 C 266.660156 160.027344 267.074219 159.554688 267.4375 159.039062 C 267.804688 158.523438 268.113281 157.976562 268.367188 157.398438 C 268.621094 156.816406 268.8125 156.21875 268.945312 155.601562 C 269.078125 154.984375 269.144531 154.359375 269.148438 153.726562 C 269.152344 153.097656 269.09375 152.472656 268.96875 151.851562 C 268.847656 151.230469 268.664062 150.632812 268.417969 150.050781 C 268.171875 149.46875 267.871094 148.914062 267.511719 148.394531 C 267.152344 147.875 266.746094 147.394531 266.289062 146.957031 C 262.15625 142.488281 258.035156 138.003906 253.855469 133.578125 C 253.457031 133.203125 253.179688 132.753906 253.019531 132.234375 C 252.859375 131.710938 252.835938 131.1875 252.953125 130.652344 C 253.878906 124.492188 254.742188 118.320312 255.550781 112.136719 C 255.664062 111.527344 255.714844 110.910156 255.703125 110.292969 C 255.691406 109.671875 255.617188 109.058594 255.480469 108.453125 C 255.34375 107.847656 255.144531 107.261719 254.890625 106.695312 C 254.632812 106.132812 254.324219 105.597656 253.957031 105.097656 C 253.59375 104.59375 253.179688 104.132812 252.71875 103.714844 C 252.261719 103.296875 251.765625 102.929688 251.230469 102.613281 C 250.695312 102.296875 250.136719 102.039062 249.546875 101.835938 C 248.960938 101.632812 248.359375 101.492188 247.742188 101.410156 C 241.628906 100.210938 235.515625 98.960938 229.386719 97.8125 C 228.941406 97.753906 228.542969 97.589844 228.183594 97.324219 C 227.828125 97.054688 227.554688 96.71875 227.371094 96.3125 C 224.285156 90.550781 221.175781 84.808594 218.039062 79.078125 C 217.671875 78.304688 217.191406 77.601562 216.601562 76.976562 C 216.011719 76.347656 215.34375 75.824219 214.589844 75.40625 C 213.839844 74.988281 213.042969 74.695312 212.199219 74.527344 C 211.355469 74.355469 210.503906 74.320312 209.648438 74.414062 C 208.101562 74.570312 206.625 74.980469 205.222656 75.644531 C 199.714844 78.117188 194.257812 80.691406 188.800781 83.269531 C 188.429688 83.472656 188.03125 83.570312 187.609375 83.566406 C 187.1875 83.5625 186.792969 83.453125 186.429688 83.242188 C 180.796875 80.449219 175.140625 77.71875 169.496094 74.960938 C 168.964844 74.644531 168.410156 74.390625 167.824219 74.191406 C 167.242188 73.992188 166.644531 73.859375 166.035156 73.785156 C 165.421875 73.714844 164.808594 73.707031 164.195312 73.765625 C 163.582031 73.824219 162.984375 73.941406 162.394531 74.128906 C 161.808594 74.3125 161.246094 74.554688 160.710938 74.855469 C 160.171875 75.160156 159.675781 75.515625 159.214844 75.921875 C 158.75 76.332031 158.339844 76.78125 157.972656 77.277344 C 157.605469 77.773438 157.296875 78.300781 157.042969 78.859375 C 153.953125 84.390625 150.910156 89.960938 147.777344 95.449219 C 147.371094 96.125 146.789062 96.566406 146.03125 96.769531 C 139.804688 97.945312 133.558594 99.023438 127.316406 100.105469 C 126.695312 100.1875 126.089844 100.332031 125.496094 100.535156 C 124.90625 100.738281 124.339844 101 123.800781 101.316406 C 123.261719 101.636719 122.761719 102.007812 122.296875 102.425781 C 121.832031 102.847656 121.414062 103.308594 121.042969 103.8125 C 120.675781 104.320312 120.359375 104.855469 120.097656 105.425781 C 119.835938 105.992188 119.632812 106.582031 119.492188 107.191406 C 119.351562 107.800781 119.273438 108.417969 119.257812 109.042969 C 119.238281 109.671875 119.285156 110.289062 119.398438 110.90625 C 120.191406 117.140625 120.875 123.386719 121.65625 129.621094 C 121.730469 130.0625 121.695312 130.492188 121.550781 130.917969 C 121.40625 131.339844 121.167969 131.703125 120.839844 132.003906 C 116.632812 136.34375 112.609375 140.851562 108.28125 145.058594 C 107.804688 145.507812 107.378906 146 107 146.539062 C 106.625 147.074219 106.304688 147.640625 106.046875 148.242188 C 105.785156 148.84375 105.585938 149.464844 105.453125 150.105469 C 105.316406 150.746094 105.246094 151.390625 105.242188 152.046875 C 105.242188 152.703125 105.304688 153.351562 105.429688 153.992188 C 105.558594 154.632812 105.75 155.257812 106.007812 155.859375 C 106.261719 156.464844 106.574219 157.035156 106.945312 157.574219 C 107.316406 158.113281 107.738281 158.613281 108.210938 159.066406 C 112.464844 163.417969 116.503906 167.980469 120.667969 172.425781 C 120.980469 172.707031 121.203125 173.046875 121.335938 173.445312 C 121.472656 173.84375 121.5 174.246094 121.421875 174.660156 C 120.492188 180.925781 119.664062 187.203125 118.761719 193.472656 C 118.585938 194.425781 118.558594 195.378906 118.683594 196.339844 C 118.808594 197.300781 119.078125 198.21875 119.496094 199.09375 C 119.910156 199.96875 120.449219 200.757812 121.117188 201.460938 C 121.78125 202.164062 122.539062 202.746094 123.390625 203.210938 C 123.71875 203.40625 124.042969 203.617188 124.40625 203.84375 C 124.136719 204.355469 123.914062 204.796875 123.671875 205.230469 C 112.910156 224.285156 102.222656 243.394531 91.324219 262.378906 C 91.074219 262.757812 90.882812 263.160156 90.746094 263.589844 C 90.609375 264.019531 90.535156 264.460938 90.519531 264.914062 C 90.507812 265.367188 90.558594 265.8125 90.671875 266.25 C 90.785156 266.6875 90.953125 267.101562 91.183594 267.488281 C 91.410156 267.878906 91.691406 268.230469 92.015625 268.542969 C 92.34375 268.851562 92.707031 269.113281 93.109375 269.324219 C 93.511719 269.53125 93.933594 269.683594 94.375 269.773438 C 94.816406 269.863281 95.265625 269.894531 95.714844 269.859375 C 106.847656 269.660156 117.984375 269.820312 129.117188 269.761719 C 129.660156 269.707031 130.164062 269.820312 130.632812 270.097656 C 131.097656 270.375 131.441406 270.761719 131.65625 271.261719 C 136.679688 280.109375 141.742188 288.929688 146.847656 297.730469 C 147.003906 298.152344 147.222656 298.542969 147.5 298.898438 C 147.78125 299.253906 148.105469 299.5625 148.476562 299.816406 C 148.847656 300.074219 149.25 300.269531 149.683594 300.402344 C 150.113281 300.539062 150.554688 300.601562 151.007812 300.601562 C 151.460938 300.601562 151.902344 300.53125 152.332031 300.394531 C 152.765625 300.257812 153.164062 300.0625 153.535156 299.800781 C 153.90625 299.542969 154.230469 299.234375 154.503906 298.878906 C 154.78125 298.519531 154.996094 298.128906 155.152344 297.703125 C 165.441406 280.15625 175.730469 262.605469 186.023438 245.0625 C 186.285156 244.609375 186.582031 244.183594 186.953125 243.601562 C 187.34375 244.246094 187.632812 244.703125 187.902344 245.167969 C 198.125 262.820312 208.339844 280.476562 218.554688 298.132812 C 218.734375 298.574219 218.96875 298.980469 219.265625 299.355469 C 219.5625 299.730469 219.90625 300.054688 220.292969 300.328125 C 220.683594 300.605469 221.105469 300.820312 221.554688 300.972656 C 222.007812 301.125 222.472656 301.214844 222.949219 301.234375 C 223.421875 301.207031 223.886719 301.109375 224.332031 300.949219 C 224.78125 300.785156 225.195312 300.566406 225.578125 300.28125 C 225.960938 300 226.296875 299.667969 226.582031 299.289062 C 226.867188 298.910156 227.09375 298.496094 227.261719 298.050781 C 232.253906 289.070312 237.316406 280.132812 242.308594 271.15625 C 242.5 270.695312 242.804688 270.339844 243.230469 270.082031 C 243.65625 269.828125 244.113281 269.722656 244.609375 269.769531 C 255.792969 269.824219 266.976562 269.804688 278.164062 269.800781 C 282.894531 269.789062 284.945312 266.339844 282.640625 262.289062 Z M 114.988281 153.734375 C 114.660156 153.371094 114.347656 152.988281 113.957031 152.535156 C 114.308594 152.140625 114.625 151.765625 114.960938 151.414062 C 119.199219 146.972656 123.402344 142.496094 127.6875 138.109375 C 128.253906 137.5625 128.742188 136.953125 129.160156 136.285156 C 129.574219 135.617188 129.902344 134.910156 130.144531 134.160156 C 130.382812 133.410156 130.53125 132.644531 130.582031 131.859375 C 130.632812 131.074219 130.585938 130.296875 130.445312 129.523438 C 129.585938 123.449219 128.988281 117.34375 128.179688 111.265625 C 127.984375 109.808594 128.335938 109.285156 129.820312 109.042969 C 136.023438 108.039062 142.199219 106.890625 148.394531 105.816406 C 149.125 105.703125 149.832031 105.507812 150.515625 105.230469 C 151.199219 104.949219 151.839844 104.59375 152.4375 104.160156 C 153.039062 103.726562 153.578125 103.230469 154.054688 102.667969 C 154.535156 102.105469 154.941406 101.496094 155.273438 100.835938 C 158.191406 95.5 161.175781 90.195312 164.132812 84.878906 C 164.433594 84.316406 164.769531 83.761719 165.148438 83.101562 C 166.242188 83.625 167.269531 84.105469 168.289062 84.601562 C 173.351562 87.070312 178.425781 89.523438 183.476562 92.023438 C 184.109375 92.351562 184.769531 92.605469 185.460938 92.777344 C 186.152344 92.949219 186.855469 93.035156 187.570312 93.039062 C 188.28125 93.042969 188.984375 92.964844 189.679688 92.800781 C 190.375 92.636719 191.039062 92.394531 191.675781 92.070312 C 197.863281 89.183594 204.082031 86.371094 210.484375 83.441406 C 212.765625 87.730469 214.960938 91.863281 217.15625 95.996094 C 218.183594 97.933594 219.175781 99.898438 220.242188 101.8125 C 220.871094 103.054688 221.746094 104.089844 222.871094 104.914062 C 223.996094 105.738281 225.246094 106.265625 226.621094 106.492188 C 233.097656 107.671875 239.53125 109.015625 246.003906 110.296875 C 246.246094 110.34375 246.480469 110.425781 246.90625 110.550781 C 246.652344 112.410156 246.417969 114.265625 246.15625 116.113281 C 245.429688 121.25 244.652344 126.375 243.976562 131.515625 C 243.789062 132.824219 243.898438 134.105469 244.3125 135.359375 C 244.722656 136.617188 245.390625 137.714844 246.316406 138.660156 C 250.667969 143.335938 255.007812 148.023438 259.339844 152.71875 C 259.671875 153.078125 259.992188 153.453125 260.386719 153.902344 L 250.359375 164.257812 C 248.96875 165.691406 247.597656 167.136719 246.183594 168.550781 C 245.675781 169.03125 245.230469 169.566406 244.851562 170.15625 C 244.472656 170.746094 244.167969 171.375 243.9375 172.039062 C 243.710938 172.699219 243.566406 173.382812 243.5 174.082031 C 243.4375 174.78125 243.457031 175.476562 243.5625 176.167969 C 244.339844 182.453125 245.082031 188.742188 245.832031 195.03125 C 245.894531 195.566406 245.933594 196.105469 246 196.804688 C 242.996094 197.3125 240.050781 197.8125 237.113281 198.304688 C 233.375 198.925781 229.609375 199.507812 225.894531 200.171875 C 224.488281 200.40625 223.210938 200.945312 222.058594 201.785156 C 220.910156 202.625 220.007812 203.675781 219.355469 204.941406 C 216.320312 210.441406 213.273438 215.933594 210.214844 221.425781 C 209.972656 221.855469 209.714844 222.28125 209.40625 222.804688 C 208.988281 222.628906 208.585938 222.484375 208.207031 222.296875 C 202.5 219.523438 196.8125 216.765625 191.132812 213.960938 C 190.492188 213.621094 189.816406 213.363281 189.113281 213.1875 C 188.410156 213.011719 187.695312 212.921875 186.96875 212.917969 C 186.242188 212.914062 185.527344 212.996094 184.820312 213.164062 C 184.113281 213.332031 183.4375 213.582031 182.792969 213.914062 C 177.03125 216.664062 171.246094 219.355469 165.46875 222.070312 C 165.027344 222.277344 164.566406 222.46875 164.035156 222.707031 C 162.175781 219.210938 160.371094 215.828125 158.578125 212.445312 C 157.199219 209.847656 155.835938 207.238281 154.453125 204.644531 C 154.128906 203.980469 153.734375 203.367188 153.261719 202.800781 C 152.789062 202.234375 152.253906 201.734375 151.65625 201.300781 C 151.0625 200.867188 150.421875 200.511719 149.738281 200.234375 C 149.054688 199.960938 148.34375 199.773438 147.613281 199.671875 C 141.167969 198.605469 134.753906 197.335938 128.328125 196.140625 C 127.992188 196.078125 127.667969 195.949219 127.175781 195.808594 C 127.546875 193.078125 127.910156 190.378906 128.289062 187.679688 C 128.886719 183.480469 129.488281 179.28125 130.058594 175.078125 C 130.273438 173.726562 130.171875 172.398438 129.757812 171.09375 C 129.347656 169.789062 128.660156 168.644531 127.707031 167.660156 C 123.453125 163.035156 119.210938 158.394531 114.988281 153.734375 Z M 269.570312 260.859375 C 260.1875 260.859375 250.804688 260.890625 241.421875 260.839844 C 240.914062 260.800781 240.410156 260.839844 239.910156 260.953125 C 239.410156 261.066406 238.941406 261.25 238.5 261.503906 C 238.054688 261.761719 237.660156 262.074219 237.3125 262.449219 C 236.960938 262.824219 236.675781 263.242188 236.453125 263.699219 C 232.296875 271.199219 228.046875 278.652344 223.84375 286.121094 C 223.578125 286.589844 223.296875 287.050781 222.855469 287.800781 L 193.910156 237.621094 C 193.136719 236.539062 192.171875 235.667969 191.011719 235.011719 C 189.855469 234.351562 188.613281 233.96875 187.285156 233.859375 C 186.519531 233.847656 185.765625 233.929688 185.023438 234.101562 C 184.277344 234.273438 183.566406 234.535156 182.886719 234.882812 C 182.207031 235.226562 181.578125 235.652344 181 236.152344 C 180.425781 236.652344 179.917969 237.214844 179.476562 237.839844 C 165.179688 262.5 159.59375 272.339844 157.859375 275.585938 C 157.382812 276.484375 155.09375 280.40625 152.039062 285.695312 C 151.800781 286.117188 151.527344 286.515625 151.175781 287.078125 C 148.429688 282.34375 145.769531 277.777344 143.136719 273.214844 C 141.289062 270.023438 139.414062 266.84375 137.59375 263.636719 C 137.367188 263.191406 137.082031 262.785156 136.738281 262.421875 C 136.394531 262.058594 136.007812 261.753906 135.574219 261.503906 C 135.140625 261.253906 134.679688 261.074219 134.191406 260.960938 C 133.707031 260.84375 133.210938 260.804688 132.714844 260.835938 C 123.277344 260.890625 113.84375 260.859375 104.410156 260.855469 L 102.511719 260.855469 C 102.8125 260.273438 102.992188 259.851562 103.21875 259.445312 C 113.054688 242.046875 122.886719 224.640625 132.714844 207.226562 C 132.792969 207.011719 132.910156 206.820312 133.066406 206.652344 C 133.222656 206.484375 133.402344 206.351562 133.613281 206.253906 C 133.820312 206.160156 134.039062 206.105469 134.269531 206.097656 C 134.5 206.089844 134.722656 206.125 134.9375 206.203125 C 138.308594 206.894531 141.71875 207.378906 145.09375 208.066406 C 145.84375 208.265625 146.425781 208.691406 146.839844 209.351562 C 149.921875 214.882812 152.933594 220.453125 155.941406 226.019531 C 156.191406 226.59375 156.496094 227.136719 156.859375 227.648438 C 157.222656 228.160156 157.636719 228.628906 158.097656 229.050781 C 158.558594 229.476562 159.058594 229.851562 159.59375 230.171875 C 160.132812 230.492188 160.699219 230.753906 161.292969 230.957031 C 161.886719 231.160156 162.496094 231.300781 163.117188 231.375 C 163.738281 231.453125 164.363281 231.464844 164.988281 231.410156 C 165.613281 231.359375 166.226562 231.242188 166.824219 231.058594 C 167.425781 230.878906 168 230.636719 168.550781 230.335938 C 171.445312 229.179688 174.277344 227.878906 177.039062 226.4375 C 179.363281 225.085938 181.910156 224.152344 184.246094 222.808594 C 184.949219 222.375 185.710938 222.15625 186.535156 222.148438 C 187.101562 222.152344 187.640625 222.273438 188.15625 222.511719 C 193.648438 225.238281 199.230469 227.789062 204.667969 230.636719 C 205.234375 230.941406 205.824219 231.1875 206.4375 231.371094 C 207.050781 231.558594 207.675781 231.683594 208.316406 231.742188 C 208.953125 231.804688 209.59375 231.800781 210.230469 231.730469 C 210.867188 231.664062 211.492188 231.535156 212.105469 231.339844 C 212.71875 231.148438 213.304688 230.898438 213.863281 230.585938 C 214.425781 230.277344 214.949219 229.914062 215.4375 229.496094 C 215.925781 229.082031 216.371094 228.621094 216.765625 228.117188 C 217.160156 227.613281 217.503906 227.074219 217.789062 226.5 C 220.550781 221.03125 223.726562 215.769531 226.652344 210.382812 C 226.851562 209.957031 227.144531 209.605469 227.527344 209.332031 C 227.910156 209.058594 228.335938 208.894531 228.804688 208.84375 C 232.40625 208.242188 235.980469 207.601562 239.546875 206.878906 C 239.738281 206.808594 239.9375 206.773438 240.140625 206.78125 C 240.347656 206.785156 240.542969 206.832031 240.730469 206.917969 C 240.917969 207 241.082031 207.117188 241.222656 207.265625 C 241.363281 207.417969 241.46875 207.589844 241.539062 207.78125 C 250.347656 223.355469 259.183594 238.917969 268.054688 254.464844 C 269.207031 256.492188 270.351562 258.527344 271.675781 260.867188 Z M 186.703125 197.902344 C 188.175781 197.910156 189.644531 197.847656 191.113281 197.710938 C 192.582031 197.574219 194.039062 197.367188 195.484375 197.089844 C 196.929688 196.8125 198.359375 196.460938 199.773438 196.042969 C 201.1875 195.625 202.574219 195.136719 203.9375 194.582031 C 205.304688 194.023438 206.636719 193.402344 207.941406 192.71875 C 209.246094 192.03125 210.511719 191.28125 211.742188 190.46875 C 212.96875 189.660156 214.15625 188.789062 215.300781 187.863281 C 216.445312 186.933594 217.542969 185.953125 218.589844 184.917969 C 219.636719 183.878906 220.628906 182.796875 221.570312 181.664062 C 222.511719 180.53125 223.394531 179.351562 224.21875 178.132812 C 225.042969 176.914062 225.808594 175.65625 226.507812 174.359375 C 227.210938 173.066406 227.847656 171.738281 228.417969 170.382812 C 228.988281 169.023438 229.488281 167.644531 229.925781 166.234375 C 230.359375 164.828125 230.722656 163.40625 231.015625 161.960938 C 231.3125 160.519531 231.535156 159.066406 231.6875 157.601562 C 231.835938 156.136719 231.914062 154.667969 231.921875 153.195312 C 231.929688 151.722656 231.863281 150.253906 231.726562 148.789062 C 231.589844 147.324219 231.378906 145.867188 231.097656 144.421875 C 230.816406 142.976562 230.464844 141.550781 230.042969 140.136719 C 229.621094 138.726562 229.132812 137.339844 228.574219 135.980469 C 228.015625 134.617188 227.390625 133.285156 226.703125 131.984375 C 226.011719 130.679688 225.261719 129.417969 224.445312 128.191406 C 223.632812 126.960938 222.761719 125.777344 221.832031 124.636719 C 220.898438 123.496094 219.917969 122.402344 218.878906 121.355469 C 217.839844 120.3125 216.753906 119.320312 215.617188 118.382812 C 214.480469 117.441406 213.304688 116.5625 212.082031 115.742188 C 210.859375 114.917969 209.597656 114.15625 208.300781 113.460938 C 207.003906 112.761719 205.675781 112.128906 204.316406 111.558594 C 202.957031 110.992188 201.574219 110.492188 200.164062 110.058594 C 198.757812 109.628906 197.328125 109.265625 195.886719 108.972656 C 194.441406 108.679688 192.984375 108.460938 191.519531 108.3125 C 190.054688 108.164062 188.585938 108.085938 187.109375 108.082031 C 185.636719 108.078125 184.167969 108.144531 182.699219 108.285156 C 181.234375 108.425781 179.777344 108.636719 178.332031 108.921875 C 176.882812 109.203125 175.457031 109.558594 174.042969 109.980469 C 172.632812 110.402344 171.246094 110.894531 169.882812 111.457031 C 168.519531 112.015625 167.1875 112.640625 165.886719 113.332031 C 164.585938 114.023438 163.320312 114.773438 162.09375 115.589844 C 160.867188 116.40625 159.683594 117.277344 158.542969 118.210938 C 157.402344 119.140625 156.308594 120.125 155.261719 121.164062 C 154.21875 122.203125 153.226562 123.289062 152.292969 124.425781 C 151.355469 125.5625 150.476562 126.742188 149.652344 127.964844 C 148.832031 129.1875 148.074219 130.445312 147.375 131.742188 C 146.679688 133.039062 146.046875 134.367188 145.480469 135.726562 C 144.914062 137.085938 144.414062 138.472656 143.984375 139.878906 C 143.554688 141.285156 143.195312 142.714844 142.90625 144.15625 C 142.617188 145.601562 142.398438 147.054688 142.25 148.519531 C 142.105469 149.984375 142.027344 151.453125 142.027344 152.925781 C 142.027344 154.390625 142.101562 155.851562 142.246094 157.3125 C 142.390625 158.769531 142.605469 160.21875 142.894531 161.652344 C 143.179688 163.089844 143.535156 164.511719 143.960938 165.914062 C 144.382812 167.316406 144.875 168.695312 145.4375 170.050781 C 145.996094 171.40625 146.621094 172.730469 147.308594 174.023438 C 147.996094 175.316406 148.746094 176.574219 149.558594 177.792969 C 150.371094 179.015625 151.242188 180.191406 152.167969 181.328125 C 153.09375 182.464844 154.074219 183.550781 155.109375 184.59375 C 156.140625 185.632812 157.222656 186.621094 158.351562 187.554688 C 159.480469 188.488281 160.652344 189.367188 161.871094 190.1875 C 163.085938 191.007812 164.335938 191.765625 165.628906 192.464844 C 166.917969 193.164062 168.238281 193.796875 169.589844 194.367188 C 170.941406 194.933594 172.316406 195.4375 173.714844 195.871094 C 175.117188 196.308594 176.535156 196.671875 177.972656 196.96875 C 179.410156 197.265625 180.855469 197.492188 182.3125 197.648438 C 183.773438 197.804688 185.234375 197.886719 186.703125 197.902344 Z M 187.042969 117.007812 C 188.222656 117.011719 189.398438 117.070312 190.574219 117.1875 C 191.746094 117.308594 192.914062 117.480469 194.070312 117.714844 C 195.226562 117.945312 196.371094 118.234375 197.5 118.578125 C 198.628906 118.925781 199.738281 119.324219 200.828125 119.777344 C 201.914062 120.230469 202.980469 120.738281 204.019531 121.296875 C 205.058594 121.851562 206.070312 122.460938 207.050781 123.117188 C 208.027344 123.777344 208.972656 124.480469 209.882812 125.230469 C 210.796875 125.980469 211.667969 126.773438 212.5 127.609375 C 213.332031 128.445312 214.121094 129.320312 214.867188 130.234375 C 215.613281 131.148438 216.3125 132.09375 216.96875 133.078125 C 217.621094 134.058594 218.222656 135.070312 218.777344 136.113281 C 219.332031 137.152344 219.832031 138.21875 220.28125 139.3125 C 220.730469 140.402344 221.125 141.511719 221.460938 142.640625 C 221.800781 143.769531 222.085938 144.914062 222.3125 146.070312 C 222.539062 147.226562 222.707031 148.394531 222.820312 149.566406 C 222.933594 150.742188 222.988281 151.917969 222.984375 153.097656 C 222.980469 154.277344 222.917969 155.453125 222.800781 156.625 C 222.679688 157.800781 222.503906 158.964844 222.269531 160.121094 C 222.035156 161.277344 221.746094 162.417969 221.398438 163.542969 C 221.054688 164.671875 220.652344 165.78125 220.195312 166.867188 C 219.742188 167.957031 219.234375 169.019531 218.675781 170.054688 C 218.113281 171.09375 217.503906 172.101562 216.84375 173.082031 C 216.1875 174.058594 215.480469 175.003906 214.730469 175.910156 C 213.976562 176.820312 213.183594 177.691406 212.34375 178.519531 C 211.507812 179.351562 210.628906 180.140625 209.714844 180.882812 C 208.800781 181.628906 207.851562 182.328125 206.867188 182.980469 C 205.882812 183.628906 204.871094 184.230469 203.828125 184.785156 C 202.785156 185.335938 201.714844 185.835938 200.625 186.28125 C 199.53125 186.730469 198.421875 187.121094 197.289062 187.460938 C 196.160156 187.796875 195.015625 188.078125 193.855469 188.304688 C 192.695312 188.53125 191.53125 188.699219 190.355469 188.808594 C 189.179688 188.917969 188.003906 188.972656 186.820312 188.964844 C 185.640625 188.960938 184.464844 188.898438 183.289062 188.777344 C 182.117188 188.65625 180.953125 188.480469 179.792969 188.246094 C 178.636719 188.007812 177.496094 187.71875 176.367188 187.371094 C 175.242188 187.023438 174.132812 186.621094 173.042969 186.164062 C 171.957031 185.710938 170.890625 185.199219 169.855469 184.640625 C 168.816406 184.078125 167.808594 183.46875 166.828125 182.808594 C 165.851562 182.148438 164.90625 181.445312 164 180.691406 C 163.089844 179.9375 162.21875 179.144531 161.390625 178.304688 C 160.558594 177.46875 159.769531 176.589844 159.027344 175.675781 C 158.28125 174.761719 157.585938 173.8125 156.933594 172.828125 C 156.285156 171.84375 155.683594 170.832031 155.132812 169.789062 C 154.582031 168.746094 154.082031 167.679688 153.636719 166.585938 C 153.191406 165.496094 152.796875 164.382812 152.460938 163.253906 C 152.125 162.121094 151.84375 160.980469 151.621094 159.820312 C 151.394531 158.664062 151.230469 157.496094 151.121094 156.324219 C 151.011719 155.148438 150.960938 153.972656 150.964844 152.792969 C 150.972656 151.617188 151.039062 150.445312 151.164062 149.277344 C 151.285156 148.109375 151.46875 146.949219 151.703125 145.796875 C 151.941406 144.648438 152.234375 143.511719 152.582031 142.386719 C 152.929688 141.265625 153.332031 140.164062 153.789062 139.082031 C 154.242188 137.996094 154.75 136.9375 155.3125 135.90625 C 155.871094 134.871094 156.480469 133.867188 157.136719 132.894531 C 157.796875 131.921875 158.5 130.980469 159.25 130.074219 C 160 129.171875 160.789062 128.304688 161.625 127.476562 C 162.460938 126.648438 163.332031 125.863281 164.246094 125.121094 C 165.15625 124.378906 166.101562 123.679688 167.082031 123.03125 C 168.0625 122.378906 169.070312 121.78125 170.109375 121.226562 C 171.144531 120.675781 172.210938 120.175781 173.296875 119.730469 C 174.382812 119.28125 175.492188 118.886719 176.617188 118.546875 C 177.742188 118.207031 178.882812 117.925781 180.035156 117.695312 C 181.1875 117.46875 182.351562 117.296875 183.519531 117.179688 C 184.691406 117.066406 185.863281 117.007812 187.042969 117.007812 Z M 166.679688 158.605469 C 166.429688 158.386719 166.203125 158.144531 166.003906 157.875 C 165.804688 157.609375 165.632812 157.324219 165.492188 157.023438 C 165.347656 156.71875 165.238281 156.40625 165.160156 156.082031 C 165.085938 155.757812 165.039062 155.429688 165.03125 155.09375 C 165.019531 154.761719 165.046875 154.429688 165.105469 154.101562 C 165.160156 153.773438 165.253906 153.453125 165.378906 153.144531 C 165.5 152.835938 165.65625 152.539062 165.839844 152.261719 C 166.023438 151.984375 166.234375 151.726562 166.472656 151.492188 C 166.707031 151.257812 166.96875 151.050781 167.246094 150.867188 C 167.527344 150.6875 167.824219 150.535156 168.132812 150.414062 C 168.445312 150.292969 168.765625 150.203125 169.09375 150.148438 C 169.421875 150.09375 169.753906 150.070312 170.089844 150.082031 C 170.421875 150.097656 170.75 150.144531 171.074219 150.222656 C 171.398438 150.304688 171.710938 150.414062 172.011719 150.558594 C 172.316406 150.703125 172.597656 150.875 172.863281 151.078125 C 173.128906 151.28125 173.371094 151.507812 173.589844 151.761719 C 175.691406 153.824219 177.722656 155.933594 179.914062 158.152344 L 193.097656 144.949219 C 195.460938 142.589844 197.8125 140.222656 200.1875 137.867188 C 200.402344 137.605469 200.644531 137.371094 200.914062 137.160156 C 201.179688 136.949219 201.464844 136.769531 201.769531 136.617188 C 202.074219 136.46875 202.390625 136.347656 202.71875 136.265625 C 203.046875 136.179688 203.378906 136.128906 203.71875 136.113281 C 204.058594 136.097656 204.398438 136.117188 204.730469 136.171875 C 205.066406 136.226562 205.394531 136.3125 205.710938 136.4375 C 206.027344 136.558594 206.328125 136.710938 206.613281 136.898438 C 206.898438 137.082031 207.160156 137.292969 207.402344 137.535156 C 207.640625 137.773438 207.855469 138.035156 208.042969 138.320312 C 208.226562 138.601562 208.382812 138.902344 208.507812 139.21875 C 208.628906 139.535156 208.71875 139.859375 208.773438 140.195312 C 208.832031 140.53125 208.851562 140.867188 208.835938 141.207031 C 208.820312 141.546875 208.773438 141.878906 208.6875 142.210938 C 208.605469 142.539062 208.488281 142.855469 208.335938 143.160156 C 208.1875 143.464844 208.007812 143.75 207.796875 144.015625 C 207.585938 144.285156 207.351562 144.527344 207.09375 144.742188 C 199.285156 152.578125 191.457031 160.40625 183.613281 168.222656 C 183.386719 168.484375 183.132812 168.71875 182.855469 168.925781 C 182.582031 169.132812 182.285156 169.308594 181.96875 169.453125 C 181.65625 169.597656 181.328125 169.707031 180.992188 169.777344 C 180.652344 169.851562 180.308594 169.890625 179.964844 169.890625 C 179.617188 169.890625 179.277344 169.851562 178.9375 169.777344 C 178.597656 169.707031 178.273438 169.597656 177.957031 169.453125 C 177.644531 169.308594 177.347656 169.132812 177.070312 168.925781 C 176.792969 168.71875 176.542969 168.484375 176.316406 168.222656 C 173.082031 165.046875 169.871094 161.84375 166.679688 158.605469 Z M 166.679688 158.605469 " fill-opacity="1" fill-rule="nonzero"/></g></svg>