<svg xmlns="http://www.w3.org/2000/svg" xmlns:xlink="http://www.w3.org/1999/xlink" width="500" zoomAndPan="magnify" viewBox="0 0 375 374.999991" height="500" preserveAspectRatio="xMidYMid meet" version="1.0"><defs><clipPath id="177850493e"><path d="M 87.039062 177 L 198 177 L 198 288 L 87.039062 288 Z M 87.039062 177 " clip-rule="nonzero"/></clipPath><clipPath id="95947abbda"><path d="M 87.039062 87.039062 L 191 87.039062 L 191 166 L 87.039062 166 Z M 87.039062 87.039062 " clip-rule="nonzero"/></clipPath></defs><path fill="#000000" d="M 287.554688 183.828125 L 287.554688 138.660156 L 265.878906 138.660156 C 259.21875 134.449219 251.5625 132.207031 243.660156 132.207031 L 216.574219 132.207031 C 213.015625 132.207031 210.121094 135.101562 210.121094 138.660156 C 210.121094 141.019531 210.808594 143.207031 211.917969 145.113281 L 193.992188 145.113281 C 188.65625 145.113281 184.3125 149.453125 184.3125 154.792969 C 184.3125 158.789062 186.746094 162.226562 190.214844 163.703125 C 186.410156 167.589844 184.3125 172.714844 184.3125 178.386719 C 184.3125 184.878906 187.21875 190.929688 192.289062 194.984375 L 219.800781 216.996094 L 247.316406 194.988281 C 249.050781 193.597656 250.511719 191.957031 251.714844 190.15625 C 257.117188 189.660156 262.164062 187.457031 266.210938 183.832031 L 287.554688 183.832031 Z M 268.195312 145.113281 L 281.101562 145.113281 L 281.101562 177.375 L 268.195312 177.375 Z M 243.28125 189.949219 L 219.800781 208.730469 L 196.320312 189.949219 C 192.789062 187.121094 190.765625 182.910156 190.765625 178.160156 C 190.765625 174.355469 192.246094 170.777344 194.9375 168.085938 C 197.238281 165.789062 200.417969 164.46875 203.671875 164.46875 C 206.921875 164.46875 210.101562 165.789062 212.402344 168.085938 L 219.800781 175.484375 L 227.199219 168.085938 C 229.5 165.789062 232.679688 164.46875 235.933594 164.46875 C 239.183594 164.46875 242.367188 165.789062 244.667969 168.085938 C 247.359375 170.777344 248.839844 174.351562 248.839844 178.386719 C 248.839844 182.910156 246.8125 187.121094 243.28125 189.949219 Z M 249.230469 163.523438 C 245.726562 160.023438 240.882812 158.015625 235.933594 158.015625 C 231.160156 158.015625 226.496094 159.898438 223.027344 163.171875 L 223.027344 162.582031 C 223.027344 160.5 223.835938 158.546875 225.308594 157.074219 L 220.746094 152.511719 C 219.175781 154.082031 218.074219 155.976562 217.382812 158.019531 L 193.992188 158.019531 C 192.210938 158.019531 190.765625 156.570312 190.765625 154.792969 C 190.765625 153.015625 192.210938 151.566406 193.992188 151.566406 L 234.597656 151.566406 L 235.542969 152.511719 C 239.042969 156.011719 243.890625 158.015625 248.839844 158.015625 L 248.839844 151.566406 C 245.585938 151.566406 242.40625 150.246094 240.105469 147.949219 L 237.269531 145.113281 L 223.027344 145.113281 C 219.46875 145.113281 216.574219 142.21875 216.574219 138.660156 L 243.660156 138.660156 C 250.066406 138.660156 256.277344 140.40625 261.742188 143.6875 L 261.742188 179.101562 C 259.703125 180.894531 257.339844 182.195312 254.773438 182.964844 C 255.109375 181.414062 255.292969 179.808594 255.292969 178.160156 C 255.292969 172.628906 253.140625 167.433594 249.230469 163.523438 Z M 249.230469 163.523438 " fill-opacity="1" fill-rule="nonzero"/><g clip-path="url(#177850493e)"><path fill="#000000" d="M 192.832031 227.246094 C 191.265625 224.632812 189.199219 222.402344 186.804688 220.632812 C 189.195312 218.867188 190.765625 216.054688 190.765625 212.863281 C 190.765625 210.378906 189.792969 208.128906 188.25 206.414062 C 189.796875 204.695312 190.765625 202.445312 190.765625 199.960938 C 190.765625 194.625 186.421875 190.28125 181.085938 190.28125 L 163.160156 190.28125 C 164.269531 188.375 164.953125 186.191406 164.953125 183.828125 C 164.953125 180.269531 162.058594 177.375 158.5 177.375 L 131.417969 177.375 C 123.515625 177.375 115.859375 179.617188 109.195312 183.828125 L 87.523438 183.828125 L 87.523438 228.996094 L 108.894531 228.996094 C 110.722656 230.625 112.769531 232.003906 114.984375 233.046875 C 113.9375 236.03125 113.332031 239.164062 113.332031 242.351562 C 113.332031 251.160156 117.542969 259.574219 124.589844 264.859375 L 155.273438 287.878906 L 185.960938 264.859375 C 193.007812 259.574219 197.21875 251.160156 197.21875 242.351562 C 197.21875 237.253906 195.828125 232.25 193.210938 227.878906 Z M 171.40625 216.089844 L 171.40625 216.175781 C 166.644531 216.527344 162.167969 218.3125 158.5 221.355469 L 158.5 209.640625 L 181.085938 209.640625 C 182.867188 209.640625 184.3125 211.085938 184.3125 212.863281 C 184.3125 214.644531 182.867188 216.089844 181.085938 216.089844 Z M 158.5 183.828125 C 158.5 187.386719 155.609375 190.28125 152.046875 190.28125 L 143.601562 190.28125 L 142.710938 192.066406 C 140.941406 195.609375 138.015625 198.53125 134.476562 200.300781 L 137.363281 206.074219 C 141.535156 203.988281 145.074219 200.710938 147.5 196.734375 L 181.085938 196.734375 C 182.867188 196.734375 184.3125 198.183594 184.3125 199.960938 C 184.3125 201.738281 182.867188 203.1875 181.085938 203.1875 L 157.695312 203.1875 C 157 201.140625 155.902344 199.246094 154.328125 197.675781 L 149.769531 202.242188 C 151.238281 203.710938 152.046875 205.667969 152.046875 207.75 L 152.046875 221.355469 C 147.9375 217.949219 142.820312 216.089844 137.417969 216.089844 C 129.410156 216.089844 121.878906 220.351562 117.738281 227.214844 C 116.140625 226.46875 114.664062 225.488281 113.332031 224.324219 L 113.332031 188.855469 C 118.800781 185.574219 125.007812 183.828125 131.417969 183.828125 Z M 106.878906 222.542969 L 93.976562 222.542969 L 93.976562 190.28125 L 106.878906 190.28125 Z M 182.09375 259.703125 L 155.273438 279.8125 L 128.457031 259.703125 C 123.027344 255.625 119.785156 249.140625 119.785156 242.351562 C 119.785156 238.425781 120.851562 234.566406 122.878906 231.1875 L 123.25 230.566406 C 126.21875 225.617188 131.648438 222.542969 137.417969 222.542969 C 141.828125 222.542969 145.976562 224.261719 149.101562 227.382812 L 155.273438 233.5625 L 161.449219 227.382812 C 164.574219 224.261719 168.722656 222.542969 173.132812 222.542969 C 178.902344 222.542969 184.332031 225.617188 187.296875 230.554688 L 187.675781 231.191406 C 189.695312 234.566406 190.765625 238.425781 190.765625 242.351562 C 190.765625 249.140625 187.523438 255.625 182.09375 259.703125 Z M 182.09375 259.703125 " fill-opacity="1" fill-rule="nonzero"/></g><g clip-path="url(#95947abbda)"><path fill="#000000" d="M 122.347656 144.871094 C 123.042969 145.878906 123.828125 146.835938 124.78125 147.652344 L 145.597656 165.492188 L 166.664062 147.433594 C 167.46875 146.742188 168.171875 145.953125 168.785156 145.113281 L 174.632812 145.113281 C 179.96875 145.113281 184.3125 140.769531 184.3125 135.433594 C 184.3125 134.160156 184.050781 132.949219 183.601562 131.832031 C 187.714844 130.714844 190.765625 126.988281 190.765625 122.527344 C 190.765625 120.039062 189.792969 117.792969 188.25 116.074219 C 189.792969 114.359375 190.765625 112.109375 190.765625 109.621094 C 190.765625 104.285156 186.421875 99.945312 181.085938 99.945312 L 163.160156 99.945312 C 164.269531 98.035156 164.953125 95.851562 164.953125 93.492188 C 164.953125 89.933594 162.058594 87.039062 158.5 87.039062 L 131.417969 87.039062 C 123.515625 87.039062 115.859375 89.28125 109.195312 93.492188 L 87.523438 93.492188 L 87.523438 138.660156 L 108.859375 138.660156 C 112.636719 142.039062 117.332031 144.199219 122.347656 144.871094 Z M 164.953125 137.128906 C 164.953125 139.207031 164.046875 141.179688 162.464844 142.535156 L 145.597656 156.996094 L 128.980469 142.75 C 127.238281 141.261719 126.238281 139.085938 126.238281 136.496094 C 126.238281 134.589844 126.976562 132.804688 128.324219 131.457031 C 129.898438 129.882812 132.078125 128.980469 134.304688 128.980469 C 136.53125 128.980469 138.710938 129.882812 140.285156 131.457031 L 145.597656 136.769531 L 150.90625 131.457031 C 152.195312 130.164062 153.90625 129.316406 155.71875 129.0625 C 158.277344 128.707031 161.019531 129.605469 162.867188 131.457031 C 164.214844 132.804688 164.953125 134.589844 164.953125 136.496094 Z M 174.632812 138.660156 L 171.238281 138.660156 C 171.300781 138.148438 171.40625 137.648438 171.40625 137.128906 L 171.40625 136.496094 C 171.40625 135.007812 171.113281 133.578125 170.65625 132.207031 L 174.632812 132.207031 C 176.414062 132.207031 177.859375 133.65625 177.859375 135.433594 C 177.859375 137.210938 176.414062 138.660156 174.632812 138.660156 Z M 181.085938 125.753906 L 166.144531 125.753906 C 163.949219 124.027344 161.269531 122.957031 158.5 122.640625 L 158.5 119.300781 L 181.085938 119.300781 C 182.867188 119.300781 184.3125 120.75 184.3125 122.527344 C 184.3125 124.304688 182.867188 125.753906 181.085938 125.753906 Z M 158.5 93.492188 C 158.5 97.050781 155.609375 99.945312 152.046875 99.945312 L 143.601562 99.945312 L 142.710938 101.726562 C 140.941406 105.269531 138.015625 108.195312 134.476562 109.964844 L 137.363281 115.738281 C 141.53125 113.648438 145.070312 110.375 147.496094 106.394531 L 181.085938 106.394531 C 182.867188 106.394531 184.3125 107.84375 184.3125 109.621094 C 184.3125 111.398438 182.867188 112.847656 181.085938 112.847656 L 157.695312 112.847656 C 157 110.804688 155.902344 108.910156 154.328125 107.339844 L 149.769531 111.902344 C 151.238281 113.375 152.046875 115.328125 152.046875 117.410156 L 152.046875 123.371094 C 149.917969 124.105469 147.945312 125.292969 146.34375 126.894531 L 145.597656 127.644531 L 144.847656 126.894531 C 142.074219 124.117188 138.230469 122.527344 134.304688 122.527344 C 130.378906 122.527344 126.535156 124.117188 123.761719 126.894531 C 121.199219 129.457031 119.785156 132.867188 119.785156 136.792969 C 119.785156 137.089844 119.863281 137.371094 119.878906 137.664062 C 117.472656 136.882812 115.253906 135.625 113.332031 133.941406 L 113.332031 98.519531 C 118.800781 95.238281 125.007812 93.492188 131.417969 93.492188 Z M 106.878906 132.207031 L 93.976562 132.207031 L 93.976562 99.945312 L 106.878906 99.945312 Z M 106.878906 132.207031 " fill-opacity="1" fill-rule="nonzero"/></g></svg>